HIERARCHY
ROOT Hips
{
	OFFSET	0.000000	0.000000	0.000000
	CHANNELS 6 Xposition Yposition Zposition Zrotation Xrotation Yrotation
	JOINT LeftUpLeg
	{
		OFFSET	12.830505	-7.049846	-1.643436
		CHANNELS 3 Zrotation Xrotation Yrotation
		JOINT LeftLeg
		{
			OFFSET	0.620834	-39.957500	-1.919341
			CHANNELS 3 Zrotation Xrotation Yrotation
			JOINT LeftFoot
			{
				OFFSET	-0.413890	-44.704761	-3.870325
				CHANNELS 3 Zrotation Xrotation Yrotation
				JOINT LeftFootHeel
				{
					OFFSET	0.164738	-8.918193	-6.555130
					CHANNELS 3 Zrotation Xrotation Yrotation
					End Site
					{
						OFFSET	-0.604053	0.000000	21.044330
					}
				}
			}
		}
	}
	JOINT RightUpLeg
	{
		OFFSET	-12.830505	-7.049846	-1.643436
		CHANNELS 3 Zrotation Xrotation Yrotation
		JOINT RightLeg
		{
			OFFSET	-0.620834	-39.957500	-1.919341
			CHANNELS 3 Zrotation Xrotation Yrotation
			JOINT RightFoot
			{
				OFFSET	0.413890	-44.704761	-3.870325
				CHANNELS 3 Zrotation Xrotation Yrotation
				JOINT RightFootHeel
				{
					OFFSET	-0.164738	-8.918193	-6.555130
					CHANNELS 3 Zrotation Xrotation Yrotation
					End Site
					{
						OFFSET	0.604053	0.000000	21.044330
					}
				}
			}
		}
	}
	JOINT Spine
	{
		OFFSET	0.000000	12.498170	1.820647
		CHANNELS 3 Zrotation Xrotation Yrotation
		JOINT Spine1
		{
			OFFSET	0.000000	7.620000	0.000000
			CHANNELS 3 Zrotation Xrotation Yrotation
			JOINT LeftShoulder
			{
				OFFSET	9.167800	29.136339	-5.551221
				CHANNELS 3 Zrotation Xrotation Yrotation
				JOINT LeftArm
				{
					OFFSET	12.133453	-3.880866	1.461963
					CHANNELS 3 Zrotation Xrotation Yrotation
					JOINT LeftForeArm
					{
						OFFSET	2.507115	-31.664905	-1.069404
						CHANNELS 3 Zrotation Xrotation Yrotation
						JOINT LeftHand
						{
							OFFSET	4.116172	-24.512624	5.009439
							CHANNELS 3 Zrotation Xrotation Yrotation
							End Site
							{
								OFFSET	-0.213136	-10.931856	2.182134
							}
						}
					}
				}
			}
			JOINT RightShoulder
			{
				OFFSET	-9.167800	29.136339	-5.551221
				CHANNELS 3 Zrotation Xrotation Yrotation
				JOINT RightArm
				{
					OFFSET	-12.133453	-3.880866	1.461963
					CHANNELS 3 Zrotation Xrotation Yrotation
					JOINT RightForeArm
					{
						OFFSET	-2.507115	-31.664905	-1.069404
						CHANNELS 3 Zrotation Xrotation Yrotation
						JOINT RightHand
						{
							OFFSET	-4.116172	-24.512624	5.009439
							CHANNELS 3 Zrotation Xrotation Yrotation
							End Site
							{
								OFFSET	0.213136	-10.931856	2.182134
							}
						}
					}
				}
			}
			JOINT Neck
			{
				OFFSET	0.000000	32.926272	-3.635654
				CHANNELS 3 Zrotation Xrotation Yrotation
				JOINT Head
				{
					OFFSET	0.000000	12.481178	4.646143
					CHANNELS 3 Zrotation Xrotation Yrotation
					End Site
					{
						OFFSET	0.000000	17.715204	-2.222063
					}
				}
			}
		}
	}
}
MOTION
Frames:     10
Frame Time: 0.016667
0.000000	103.462792	0.000000	-0.825450	-2.526605	2.137330	1.402442	2.524102	0.114607	-0.054738	-0.052491	-1.489968	-0.037974	-0.108913	-2.910063	0.	0.	0.	2.199039	2.151659	-0.633600	-0.415405	4.470177	0.892374	-2.814110	-4.429898	-9.760077	0.	0.	0.	0.000000	0.000000	0.000002	1.434122	3.667097	-0.303243	-2.055383	-3.367594	-0.380326	1.197891	2.434370	3.745489	2.177967	-2.474901	-5.809290	-0.593596	6.541664	-10.210874	-1.864193	-0.974357	-0.275896	-1.667473	1.906081	0.285181	1.530742	-2.316139	1.099634	-1.625635	-0.954761	0.902779	0.055687	-5.047558	6.135308	-0.345038	2.572913	7.006578	
0.030973	103.462637	0.007890	-0.807297	-2.523635	2.277649	1.401655	2.548406	0.062028	-0.102902	-0.138654	-1.498927	-0.002857	-0.051633	-2.988662	0.	0.	0.	2.182122	2.408788	-0.618747	-0.405273	4.002136	0.750136	-2.802929	-4.225137	-9.763635	0.	0.	0.	0.000000	0.000000	0.000002	1.437824	3.628742	-0.307103	-2.101688	-3.374775	-0.375383	1.212512	2.428459	3.716938	2.368210	-1.889060	-5.867815	-0.750678	6.553154	-10.047482	-1.914022	-1.013458	-0.291278	-1.475728	1.905192	0.334683	1.361256	-1.945257	0.881814	-1.526145	-0.920626	0.895188	-0.008316	-5.113865	5.996833	-0.303281	2.534507	6.828162	
0.044421	103.462307	0.017963	-0.799688	-2.522373	2.336458	1.408434	2.579476	0.010671	-0.137520	-0.205219	-1.469326	0.019032	-0.017929	-3.026070	0.	0.	0.	2.174690	2.542473	-0.599063	-0.403460	3.656461	0.686167	-2.793406	-4.015377	-9.768135	0.	0.	0.	0.000000	0.000000	0.000000	1.430336	3.619941	-0.299239	-2.117092	-3.390630	-0.370745	1.219289	2.417238	3.717444	2.467688	-1.586777	-5.918621	-0.831974	6.532807	-9.956357	-1.935105	-1.042828	-0.300707	-1.364534	1.903033	0.371018	1.271818	-1.739152	0.739935	-1.467300	-0.934009	0.874717	-0.018386	-5.157204	5.925249	-0.305957	2.466224	6.654765	
0.042954	103.463693	0.026337	-0.773595	-2.508015	2.503089	1.471084	2.798856	-0.202287	-0.286595	-0.692398	-1.405555	0.081126	0.233792	-3.047627	0.	0.	0.	2.146868	3.071101	-0.429795	-0.383919	2.778486	0.333944	-2.774786	-3.684340	-9.737136	0.	0.	0.	0.000000	-0.000001	0.000002	1.395389	3.470598	-0.231167	-2.185134	-3.351185	-0.321070	1.264416	2.416068	3.743960	2.859130	-0.434445	-6.141089	-1.219975	6.342119	-9.494447	-2.040716	-1.114164	-0.364526	-0.873767	1.864401	0.548071	0.909114	-0.686128	0.110540	-1.149099	-1.121069	0.704309	-0.050551	-5.139816	5.683020	-0.327363	2.432141	6.423396	
0.021971	103.458587	0.031189	-0.742720	-2.451917	2.561942	1.504190	2.927339	-0.293426	-0.383316	-1.062717	-1.386800	0.111010	0.419822	-3.036482	0.	0.	0.	2.108341	3.288894	-0.362077	-0.367974	2.504791	0.209221	-2.774786	-3.684340	-9.737136	0.	0.	0.	0.000000	0.000000	0.000002	1.362469	3.335610	-0.185292	-2.230930	-3.312988	-0.304240	1.298785	2.441124	3.772824	3.048091	0.101913	-6.246733	-1.460815	6.179237	-9.169159	-2.090588	-1.171708	-0.397440	-0.667308	1.822128	0.746108	0.748304	-0.114736	-0.292327	-1.139280	-1.513555	0.828352	-0.131438	-5.129284	5.598880	-0.285769	2.431687	6.251183	
-0.002781	103.449585	0.035875	-0.701943	-2.370652	2.614032	1.536006	3.060358	-0.381677	-0.495420	-1.490626	-1.366727	0.146308	0.634304	-3.023493	0.	0.	0.	2.058044	3.484569	-0.278986	-0.363353	1.879118	-0.002397	-2.757524	-3.338864	-9.640116	0.	0.	0.	0.000000	0.000000	0.000000	1.306603	3.234550	-0.125677	-2.262713	-3.340463	-0.301695	1.332584	2.477048	3.775833	3.229423	0.616785	-6.322319	-1.735868	5.973376	-8.788477	-2.128515	-1.297249	-0.441559	-0.476826	1.801028	0.996159	0.557089	0.449696	-0.671937	-0.830926	-1.102916	0.471612	-0.204016	-5.188632	5.507820	-0.242474	2.490666	6.091100	
-0.002781	103.449585	0.035875	-0.701943	-2.370652	2.614032	1.536006	3.060358	-0.381677	-0.495420	-1.490626	-1.366727	0.146308	0.634304	-3.023493	0.	0.	0.	2.058044	3.484569	-0.278986	-0.363353	1.879118	-0.002397	-2.757524	-3.338864	-9.640116	0.	0.	0.	0.000000	0.000000	0.000000	1.300039	3.230162	-0.070533	-2.259350	-3.333908	-0.356347	1.332584	2.477048	3.775833	3.229424	0.616785	-6.322319	-1.735868	5.973379	-8.788477	-2.123203	-1.290822	-0.496147	-0.476826	1.801028	0.996159	0.527059	0.647170	-0.695248	-0.778101	-1.106380	0.469766	-0.242506	-5.208239	5.463995	-0.220941	2.505070	6.012167	
-0.060142	103.423889	0.027510	-0.610564	-2.170014	2.660364	1.595354	3.327804	-0.623571	-0.735083	-2.430399	-1.250130	0.227217	1.108097	-2.953987	0.	0.	0.	1.934349	3.830550	-0.185860	-0.350975	0.786118	-0.384778	-2.726115	-2.801149	-9.361714	0.	0.	0.	0.000000	0.000000	0.000001	1.172465	3.021668	0.056983	-2.378228	-3.402808	-0.348559	1.456177	2.529705	3.824781	3.589617	1.611863	-6.496439	-2.189846	5.526350	-8.071609	-2.248360	-1.528527	-0.574143	-0.078814	1.743550	1.299778	0.245141	1.463615	-1.146075	-0.620514	-1.175302	0.425158	-0.363453	-5.273709	5.339608	-0.178912	2.569102	5.816435	
-0.071014	103.410179	0.013741	-0.567704	-2.067278	2.654120	1.583960	3.452437	-0.760593	-0.799969	-2.889575	-1.183457	0.258187	1.340956	-2.880773	0.	0.	0.	1.873638	3.965471	-0.139053	-0.336821	0.357615	-0.525647	-2.716140	-2.614608	-9.254145	0.	0.	0.	0.000000	0.000000	-0.000001	1.110895	2.913282	0.167075	-2.412032	-3.410268	-0.354726	1.489753	2.530298	3.848309	3.808099	2.073076	-6.643360	-2.384868	5.289124	-7.740673	-2.305692	-1.634475	-0.634301	0.110614	1.707317	1.388862	0.128958	1.887787	-1.315252	-0.467901	-1.241466	0.293361	-0.441795	-5.349904	5.270378	-0.161024	2.649506	5.696176	
-0.064367	103.395683	0.000419	-0.523554	-1.961488	2.647609	1.538867	3.554085	-0.854212	-0.823591	-3.309129	-1.135323	0.280010	1.554736	-2.829897	0.	0.	0.	1.814943	4.048973	-0.078609	-0.327331	0.171091	-0.575123	-2.706788	-2.617008	-9.262717	0.	0.	0.	0.000000	0.000000	0.000003	1.047227	2.803020	0.269531	-2.444860	-3.378632	-0.383305	1.521686	2.489881	3.906300	4.031979	2.508627	-6.746182	-2.575971	5.055520	-7.498239	-2.355416	-1.736126	-0.692281	0.293832	1.665483	1.485516	0.021493	2.343287	-1.539876	-0.244976	-1.360493	0.133944	-0.508728	-5.440362	5.244175	-0.076775	2.740593	5.623604	
